<?xml version="1.0" encoding="UTF-8"?>
<svg width="90px" height="74px" viewBox="0 0 90 74" version="1.1" xmlns="http://www.w3.org/2000/svg" xmlns:xlink="http://www.w3.org/1999/xlink">
    <!-- Generator: Sketch 52.6 (67491) - http://www.bohemiancoding.com/sketch -->
    <title>noun_finish line_2775603</title>
    <desc>Created with Sketch.</desc>
    <g id="Page-1" stroke="none" stroke-width="1" fill="none" fill-rule="evenodd">
        <g id="noun_finish-line_2775603" fill="#F45905">
            <path d="M4.597,73.685 L0,73.685 L0,0.927 L4.597,0.927 L4.597,73.685 Z M0.938,72.747 L3.66,72.747 L3.66,1.864 L0.938,1.864 L0.938,72.747 Z" id="Shape" fill-rule="nonzero"></path>
            <path d="M90,73.685 L85.403,73.685 L85.403,0.927 L90,0.927 L90,73.685 Z M86.341,72.747 L89.064,72.747 L89.064,1.864 L86.341,1.864 L86.341,72.747 Z" id="Shape" fill-rule="nonzero"></path>
            <g id="Group" transform="translate(4.000000, 0.000000)">
                <path d="M66.225,35.354 C68.645,35.475 71.064,35.875 73.484,36.636 L73.484,30.932 C71.064,30.172 68.645,29.771 66.225,29.65 L66.225,35.354 Z" id="Path"></path>
                <path d="M59.038,13.035 L59.038,7.331 C56.619,7.684 54.199,8.237 51.779,8.909 L51.779,14.613 C54.199,13.941 56.619,13.388 59.038,13.035 Z" id="Path"></path>
                <path d="M37.335,36.409 L37.335,30.762 C39.754,29.933 42.173,29.063 44.592,28.234 L44.592,22.53 C42.173,23.359 39.753,24.229 37.334,25.058 L37.334,30.761 C34.938,31.582 32.543,32.363 30.147,33.026 L30.147,38.673 C32.544,38.011 34.939,37.229 37.335,36.409 L37.335,42.113 C39.754,41.284 42.174,40.414 44.593,39.585 L44.593,33.881 C42.174,34.711 39.754,35.58 37.335,36.409 Z" id="Path"></path>
                <path d="M30.149,27.323 C27.729,27.993 25.309,28.542 22.89,28.891 L22.89,34.595 C25.309,34.246 27.729,33.696 30.149,33.026 L30.149,27.323 Z" id="Path"></path>
                <path d="M30.148,21.675 L30.148,15.971 C27.728,16.641 25.308,17.191 22.889,17.54 L22.889,23.243 C25.309,22.895 27.728,22.345 30.148,21.675 L30.148,27.323 C32.544,26.66 34.939,25.879 37.335,25.058 L37.335,19.411 C34.939,20.231 32.544,21.012 30.148,21.675 Z" id="Path"></path>
                <path d="M51.779,20.26 L51.779,14.613 C49.383,15.278 46.988,16.061 44.592,16.882 L44.592,22.53 C46.988,21.708 49.383,20.926 51.779,20.26 Z" id="Path"></path>
                <path d="M44.593,28.234 L44.593,33.881 C46.989,33.06 49.384,32.277 51.781,31.611 L51.781,25.964 C54.201,25.293 56.62,24.739 59.039,24.386 L59.039,18.682 C56.62,19.035 54.2,19.588 51.78,20.26 L51.78,25.964 C49.383,26.63 46.989,27.412 44.593,28.234 Z" id="Path"></path>
                <path d="M66.225,29.65 L66.225,24.003 C63.829,23.883 61.435,24.037 59.038,24.387 L59.038,30.033 C56.619,30.386 54.199,30.939 51.779,31.611 L51.779,37.315 C54.199,36.643 56.619,36.09 59.038,35.737 L59.038,30.033 C61.435,29.684 63.829,29.531 66.225,29.65 Z" id="Path"></path>
                <path d="M80.67,5.031 C54.224,-11.924 27.776,23.6 1.33,6.645 C0.929,6.388 0.528,6.119 0.128,5.838 L0.128,6.783 L0.128,46.483 L0.128,47.428 C0.528,47.709 0.929,47.979 1.33,48.236 C27.776,65.191 54.224,29.667 80.67,46.622 C81.07,46.879 81.472,47.147 81.872,47.429 L81.872,46.484 L81.872,6.784 L81.872,5.839 C81.472,5.556 81.07,5.287 80.67,5.031 Z M80.67,28.678 C78.274,27.142 75.879,26.037 73.483,25.285 L73.483,30.932 C75.879,31.684 78.274,32.789 80.67,34.326 L80.67,40.029 C78.274,38.493 75.879,37.388 73.483,36.636 L73.483,42.283 C71.064,41.522 68.644,41.122 66.224,41.001 L66.224,35.354 C63.828,35.234 61.433,35.388 59.037,35.737 L59.037,41.384 C56.618,41.737 54.198,42.289 51.778,42.962 L51.778,37.315 C49.382,37.98 46.987,38.763 44.591,39.585 L44.591,45.232 C42.172,46.061 39.752,46.93 37.333,47.759 L37.333,42.113 C34.938,42.933 32.542,43.715 30.147,44.378 L30.147,50.025 C27.727,50.694 25.307,51.244 22.888,51.593 L22.888,45.946 C20.492,46.292 18.097,46.44 15.701,46.315 L15.701,51.962 C13.306,51.836 10.91,51.437 8.515,50.684 L8.515,45.037 C10.911,45.79 13.306,46.189 15.702,46.315 L15.702,40.611 C18.098,40.737 20.493,40.589 22.888,40.242 L22.888,45.946 C25.307,45.596 27.727,45.048 30.147,44.378 L30.147,38.674 C27.727,39.344 25.307,39.894 22.888,40.242 L22.888,34.595 C20.492,34.941 18.097,35.089 15.701,34.964 L15.701,29.26 C18.097,29.386 20.492,29.236 22.888,28.89 L22.888,23.243 C20.492,23.589 18.097,23.738 15.701,23.613 L15.701,29.26 C13.305,29.135 10.91,28.734 8.514,27.982 L8.514,33.685 C10.91,34.438 13.305,34.838 15.701,34.964 L15.701,40.61 C13.305,40.485 10.91,40.085 8.514,39.332 L8.514,45.036 C6.118,44.283 3.723,43.179 1.327,41.642 L1.327,35.94 C3.723,37.476 6.118,38.581 8.514,39.333 L8.514,33.686 C6.118,32.933 3.723,31.828 1.327,30.292 L1.327,24.589 C3.723,26.124 6.118,27.229 8.514,27.982 L8.514,22.335 C10.91,23.087 13.305,23.488 15.7,23.613 L15.7,17.909 C13.304,17.784 10.909,17.384 8.513,16.631 L8.513,22.334 C6.117,21.582 3.722,20.477 1.327,18.94 L1.327,13.237 C3.723,14.772 6.118,15.877 8.514,16.63 L8.514,10.983 C10.909,11.735 13.305,12.136 15.7,12.261 L15.7,17.908 C18.096,18.034 20.491,17.885 22.887,17.539 L22.887,11.892 C25.306,11.543 27.726,10.993 30.146,10.323 L30.146,15.971 C32.541,15.307 34.937,14.526 37.332,13.706 L37.332,8.058 C39.751,7.229 42.171,6.36 44.59,5.53 L44.59,11.177 C42.171,12.007 39.751,12.877 37.332,13.706 L37.332,19.409 C39.751,18.58 42.171,17.711 44.59,16.881 L44.59,11.178 C46.986,10.356 49.381,9.574 51.777,8.908 L51.777,3.261 C54.197,2.589 56.617,2.036 59.036,1.683 L59.036,7.33 C61.432,6.98 63.827,6.826 66.223,6.947 L66.223,12.65 C63.827,12.531 61.433,12.684 59.036,13.034 L59.036,18.681 C61.432,18.331 63.827,18.178 66.223,18.298 L66.223,24.002 C68.643,24.123 71.062,24.523 73.482,25.284 L73.482,19.58 C71.062,18.82 68.643,18.419 66.223,18.298 L66.223,12.651 C68.643,12.772 71.062,13.173 73.482,13.933 L73.482,19.58 C75.878,20.332 78.273,21.437 80.669,22.973 L80.669,28.678 L80.67,28.678 Z M80.67,17.327 C78.274,15.791 75.879,14.686 73.483,13.933 L73.483,8.23 C71.063,7.47 68.644,7.069 66.224,6.948 L66.224,1.302 C68.644,1.423 71.064,1.823 73.483,2.583 L73.483,8.23 C75.879,8.983 78.274,10.088 80.67,11.624 L80.67,17.327 Z" id="Shape" fill-rule="nonzero"></path>
            </g>
        </g>
    </g>
</svg>