<?xml version="1.0" encoding="UTF-8"?>
<svg width="92px" height="100px" viewBox="0 0 92 100" version="1.1" xmlns="http://www.w3.org/2000/svg" xmlns:xlink="http://www.w3.org/1999/xlink">
    <!-- Generator: Sketch 52.6 (67491) - http://www.bohemiancoding.com/sketch -->
    <title>noun_Running_1104982</title>
    <desc>Created with Sketch.</desc>
    <g id="Page-1" stroke="none" stroke-width="1" fill="none" fill-rule="evenodd">
        <g id="noun_Running_1104982" fill="#F45905">
            <circle id="Oval" cx="60.3" cy="7.3" r="7.3"></circle>
            <path d="M74.2,27 C75,27 76.5,26.8 76.5,24.7 C76.5,22.7 75.2,20.8 74.2,20.8 C73,20.8 72.2,22.1 71.4,23.4 C69.5,26.4 69.5,25.6 66.9,25.4 C67,26.6 66.9,27.8 66.8,29 C69.9,28 73,27 74.2,27 Z" id="Path"></path>
            <path d="M76.4,91.6 C72.6,89.7 70.4,74 69.7,67.4 C69.5,65 62.3,55.1 59.6,50.1 C57.6,47.3 63.5,41 65.3,31.7 C65.4,31.4 68.9,16.7 57.3,15.5 C51.4,14.9 37.7,17.1 32.6,19.1 C27.5,20.9 28.1,20.9 29.8,25.4 C31.6,30.3 36.4,33.1 36.2,36 C36.1,37.2 36,38.3 36.2,39.2 C36.6,41.4 40,40.4 40.6,39.2 C41,38.5 40.8,37.7 40.1,36.8 C37.9,34.1 33.2,28.4 36.6,23.3 C37.7,23.4 46.6,24.5 47.1,24.5 C47.6,31.1 51.5,33.3 45.6,40 C38,48.2 42.6,52.4 50.7,58.1 C51.6,58.6 62,66.8 62.7,69.1 C66.1,85.5 73.2,89.3 71.7,95.9 C71.5,97.7 71.7,98.8 72.3,99.4 C74.1,101 80.4,97.5 86.6,97.4 C90.6,97.4 92,94.3 91.7,93.7 C89.8,90.9 77.9,92.8 76.4,91.6 Z" id="Path"></path>
            <path d="M41.8,52 C29.8,64.7 39.9,55.2 17.1,63.6 C10.2,66.5 9,66.4 6.2,65.8 C4.5,65.4 3.3,65.6 2.7,66.1 C0.7,68.1 4.7,72.8 1.4,78.8 C2.22044605e-16,81.9 2.3,84.8 3,84.8 C3,84.8 3,84.8 3.1,84.8 C6.1,84.7 8,75.4 10.1,71.4 C12.2,67.3 28.1,66.9 35,66.8 C37.3,66.8 42.9,62.3 49.5,58.9 C45.6,56.1 43,53.8 41.8,52 Z" id="Path"></path>
        </g>
    </g>
</svg>